<?xml version="1.0" encoding="iso-8859-1"?>
<!-- Generator: Adobe Illustrator 19.0.0, SVG Export Plug-In . SVG Version: 6.00 Build 0)  -->
<svg xmlns="http://www.w3.org/2000/svg" xmlns:xlink="http://www.w3.org/1999/xlink" version="1.1" id="Layer_1" x="0px" y="0px" viewBox="0 0 490 490" style="enable-background:new 0 0 490 490;" xml:space="preserve" width="512px" height="512px">
<g>
	<g>
		<g>
			<path d="M480,325h-5V45c0-5.522-4.477-10-10-10H300V10c0-5.522-4.477-10-10-10h-90c-5.523,0-10,4.478-10,10v25H25     c-5.523,0-10,4.478-10,10v280h-5c-5.523,0-10,4.478-10,10v35c0,5.522,4.477,10,10,10h152.339l-50.913,84.855l17.149,10.289     L185.661,380H235v110h20V380h49.339l57.087,95.145l17.149-10.289L327.661,380H480c5.523,0,10-4.478,10-10v-35     C490,329.478,485.523,325,480,325z M210,20h70v15h-70V20z M35,55h420v270H35V55z M470,360H20v-15h450V360z" fill="#19b5fe"/>
			<path d="M387.071,212.929l-14.143,14.143L395.857,250H355V100c0-6.85-4.867-14.189-14.169-14.966C340.555,85.012,130,85,130,85     c-4.798,0-8.96,1.793-11.719,5.05c-3.243,3.827-3.452,8.167-3.281,10.441V200H60v20h59.508c2.274,0.172,6.615-0.038,10.442-3.281     c3.256-2.759,5.05-6.92,5.05-11.719V105h200v150c0,0.277,0.012,0.555,0.035,0.831C335.811,265.133,343.15,270,350,270h40.855     l-21.994,17.106l12.278,15.787l45-35c2.264-1.761,3.663-4.409,3.841-7.272c0.179-2.862-0.881-5.664-2.909-7.692L387.071,212.929z     " fill="#19b5fe"/>
			<path d="M195,120c-19.299,0-35,15.701-35,35s15.701,35,35,35s35-15.701,35-35S214.299,120,195,120z M195,170     c-8.271,0-15-6.729-15-15s6.729-15,15-15s15,6.729,15,15S203.271,170,195,170z" fill="#19b5fe"/>
			<path d="M275,120c-19.299,0-35,15.701-35,35s15.701,35,35,35s35-15.701,35-35S294.299,120,275,120z M275,170     c-8.271,0-15-6.729-15-15s6.729-15,15-15s15,6.729,15,15S283.271,170,275,170z" fill="#19b5fe"/>
			<path d="M195,200c-19.299,0-35,15.701-35,35s15.701,35,35,35s35-15.701,35-35S214.299,200,195,200z M195,250     c-8.271,0-15-6.729-15-15s6.729-15,15-15s15,6.729,15,15S203.271,250,195,250z" fill="#19b5fe"/>
			<path d="M275,200c-19.299,0-35,15.701-35,35s15.701,35,35,35s35-15.701,35-35S294.299,200,275,200z M275,250     c-8.271,0-15-6.729-15-15s6.729-15,15-15s15,6.729,15,15S283.271,250,275,250z" fill="#19b5fe"/>
		</g>
	</g>
</g>
<g>
</g>
<g>
</g>
<g>
</g>
<g>
</g>
<g>
</g>
<g>
</g>
<g>
</g>
<g>
</g>
<g>
</g>
<g>
</g>
<g>
</g>
<g>
</g>
<g>
</g>
<g>
</g>
<g>
</g>
</svg>
