<?xml version="1.0" encoding="iso-8859-1"?>
<!-- Generator: Adobe Illustrator 19.0.0, SVG Export Plug-In . SVG Version: 6.00 Build 0)  -->
<svg xmlns="http://www.w3.org/2000/svg" xmlns:xlink="http://www.w3.org/1999/xlink" version="1.1" id="Capa_1" x="0px" y="0px" viewBox="0 0 512 512" style="enable-background:new 0 0 512 512;" xml:space="preserve" width="512px" height="512px">
<g>
	<g>
		<rect x="393.43" y="169.99" width="15" height="77" fill="#19b5fe"/>
	</g>
</g>
<g>
	<g>
		<rect x="393.43" y="127.82" width="15" height="24.867" fill="#19b5fe"/>
	</g>
</g>
<g>
	<g>
		<rect x="362.43" y="38.4" width="35.886" height="15" fill="#19b5fe"/>
	</g>
</g>
<g>
	<g>
		<rect x="101.14" y="38.4" width="248.39" height="15" fill="#19b5fe"/>
	</g>
</g>
<g>
	<g>
		<polygon points="307.732,110.544 297.125,121.151 348.493,172.519 297.125,223.887 307.732,234.494 369.706,172.519   " fill="#19b5fe"/>
	</g>
</g>
<g>
	<g>
		<polygon points="210.729,121.151 200.121,110.544 138.146,172.519 200.121,234.494 210.729,223.887 159.359,172.519   " fill="#19b5fe"/>
	</g>
</g>
<g>
	<g>
		<rect x="176.16" y="165.02" transform="matrix(0.2881 -0.9576 0.9576 0.2881 15.5681 365.9805)" width="155.54" height="15" fill="#19b5fe"/>
	</g>
</g>
<g>
	<g>
		<rect x="105.13" y="272.43" width="51.791" height="15" fill="#19b5fe"/>
	</g>
</g>
<g>
	<g>
		<rect x="147.39" y="303.66" width="18.15" height="15" fill="#19b5fe"/>
	</g>
</g>
<g>
	<g>
		<rect x="147.39" y="366.13" width="18.15" height="15" fill="#19b5fe"/>
	</g>
</g>
<g>
	<g>
		<rect x="177.3" y="366.13" width="86.53" height="15" fill="#19b5fe"/>
	</g>
</g>
<g>
	<g>
		<rect x="177.3" y="303.66" width="86.53" height="15" fill="#19b5fe"/>
	</g>
</g>
<g>
	<g>
		<rect x="199.26" y="334.89" width="116.07" height="15" fill="#19b5fe"/>
	</g>
</g>
<g>
	<g>
		<rect x="168.24" y="272.43" width="27.475" height="15" fill="#19b5fe"/>
	</g>
</g>
<g>
	<g>
		<path d="M441.996,280.739V46.267c0-21.181-17.232-38.413-38.413-38.413H35.066C15.73,7.854,0,23.584,0,42.92v49.729h61.826    v385.914h301.158c15.81,15.799,37.631,25.583,61.695,25.583c48.149,0,87.321-39.172,87.321-87.321v-110.8L441.996,280.739z     M61.825,77.649H15v-7.488h25.582v-15H15V42.92c0-11.064,9.002-20.066,20.066-20.066h6.693c11.064,0,20.066,9.002,20.066,20.066    V77.649z M303.763,463.562V427.68h-15v35.884H76.826v-21.627h77.018v-15H76.826V42.92c0-7.459-2.348-14.376-6.334-20.066h333.091    c12.91,0,23.413,10.503,23.413,23.413v25.775h-23.078v15h23.078V275.32l-2.317-0.837l-87.321,31.542v110.8    c0,0.939,0.02,1.873,0.05,2.805c0.008,0.252,0.019,0.504,0.029,0.756c0.031,0.76,0.071,1.517,0.121,2.272    c0.012,0.19,0.022,0.381,0.036,0.571c0.068,0.934,0.15,1.865,0.248,2.791c0.017,0.162,0.038,0.323,0.055,0.484    c0.087,0.783,0.184,1.563,0.292,2.339c0.031,0.226,0.062,0.451,0.095,0.677c0.267,1.825,0.59,3.632,0.969,5.418    c0.058,0.275,0.119,0.55,0.18,0.824c0.145,0.654,0.298,1.305,0.458,1.954c0.065,0.264,0.126,0.528,0.193,0.791    c0.204,0.796,0.42,1.587,0.646,2.375c0.112,0.392,0.232,0.781,0.349,1.172c0.13,0.43,0.263,0.859,0.399,1.286    c0.146,0.458,0.293,0.916,0.446,1.372c0.083,0.245,0.17,0.487,0.255,0.73c0.361,1.042,0.743,2.077,1.144,3.104    c0.05,0.128,0.099,0.256,0.15,0.384c2.013,5.086,4.495,9.988,7.445,14.632H303.763z M497,416.825    c0,39.878-32.443,72.321-72.321,72.321c-27.384,0-51.26-15.3-63.534-37.799c-0.042-0.077-0.082-0.155-0.124-0.232    c-0.495-0.915-0.97-1.842-1.426-2.78c-0.079-0.162-0.155-0.325-0.232-0.488c-0.406-0.852-0.796-1.713-1.17-2.583    c-0.106-0.248-0.209-0.497-0.313-0.747c-0.328-0.787-0.641-1.582-0.941-2.383c-0.123-0.328-0.243-0.657-0.361-0.987    c-0.261-0.729-0.509-1.463-0.747-2.202c-0.128-0.399-0.255-0.799-0.376-1.2c-0.206-0.68-0.399-1.366-0.585-2.055    c-0.123-0.455-0.246-0.911-0.36-1.368c-0.162-0.649-0.309-1.303-0.453-1.959c-0.109-0.495-0.219-0.989-0.317-1.486    c-0.126-0.639-0.236-1.283-0.345-1.928c-0.087-0.512-0.178-1.024-0.254-1.538c-0.097-0.66-0.175-1.327-0.254-1.993    c-0.06-0.5-0.127-0.999-0.177-1.501c-0.073-0.745-0.121-1.498-0.172-2.25c-0.028-0.426-0.069-0.85-0.09-1.277    c-0.058-1.182-0.091-2.37-0.091-3.566V316.557l72.321-26.124L497,316.557V416.825z" fill="#19b5fe"/>
	</g>
</g>
<g>
	<g>
		<path d="M424.679,301.396l-63.918,23.09v89.95c0,35.244,28.674,63.918,63.918,63.918c35.244,0,63.918-28.674,63.918-63.918v-89.95    L424.679,301.396z M473.597,414.437c0,24.424-17.992,44.723-41.418,48.343V355.35h-15v107.429    c-23.426-3.62-41.418-23.919-41.418-48.343v-79.421l41.418-14.961v22.339h15v-22.339l41.418,14.961V414.437z" fill="#19b5fe"/>
	</g>
</g>
<g>
	<g>
		<rect x="447.63" y="376.28" width="15" height="42.987" fill="#19b5fe"/>
	</g>
</g>
<g>
	<g>
		<rect x="447.63" y="340.02" width="15" height="23.886" fill="#19b5fe"/>
	</g>
</g>
<g>
</g>
<g>
</g>
<g>
</g>
<g>
</g>
<g>
</g>
<g>
</g>
<g>
</g>
<g>
</g>
<g>
</g>
<g>
</g>
<g>
</g>
<g>
</g>
<g>
</g>
<g>
</g>
<g>
</g>
</svg>
